<?xml version="1.0" standalone="no"?>
<!DOCTYPE svg PUBLIC "-//W3C//DTD SVG 20010904//EN"
 "http://www.w3.org/TR/2001/REC-SVG-20010904/DTD/svg10.dtd">
<svg version="1.0" xmlns="http://www.w3.org/2000/svg"
 width="260.000000pt" height="260.000000pt" viewBox="0 0 260.000000 260.000000"
 preserveAspectRatio="xMidYMid meet">
<metadata>
Created by potrace 1.11, written by Peter Selinger 2001-2013
</metadata>
<g transform="translate(0.000000,260.000000) scale(0.100000,-0.100000)"
fill="#000000" stroke="none">
<path d="M1986 1823 c-2 -2 -82 -3 -178 -4 l-175 0 0 -112 c0 -117 -11 -459
-18 -562 -2 -33 -6 -107 -10 -165 -3 -58 -8 -129 -11 -157 l-6 -53 156 0 c86
0 156 3 157 8 1 4 2 63 4 132 12 501 21 681 36 691 6 3 45 7 87 8 92 2 136
-19 147 -68 22 -103 -70 -179 -189 -157 l-33 6 18 -65 c10 -36 20 -82 24 -103
3 -20 12 -42 21 -49 30 -22 229 -9 259 18 5 5 15 9 23 9 26 0 110 70 141 118
89 140 71 340 -40 435 -60 52 -128 69 -280 71 -71 1 -131 1 -133 -1z"/>
<path d="M199 1808 c-2 -27 -6 -87 -13 -193 -3 -60 -8 -130 -11 -155 -2 -25
-7 -72 -10 -105 -7 -92 -16 -196 -20 -235 -2 -19 -6 -71 -10 -115 -4 -44 -8
-91 -10 -105 -2 -14 -6 -49 -10 -77 l-7 -53 136 0 c75 0 137 3 137 8 1 8 3 37
13 212 3 63 8 144 11 180 2 36 7 103 10 150 6 96 14 162 19 167 2 2 7 -13 11
-34 3 -21 24 -110 45 -198 22 -88 41 -171 44 -185 3 -14 8 -36 11 -50 3 -14 8
-38 11 -54 2 -16 7 -32 9 -36 2 -3 6 -20 9 -36 9 -50 17 -88 22 -106 5 -16 21
-18 148 -18 l142 0 122 368 123 367 -6 -275 c-3 -151 -8 -317 -11 -367 l-5
-93 144 0 143 0 1 138 c1 230 18 791 28 885 l2 27 -219 -2 -219 -3 -34 -100
c-18 -55 -52 -152 -75 -215 -23 -63 -57 -164 -75 -225 -19 -60 -34 -103 -35
-95 -4 47 -43 224 -90 410 -21 85 -42 172 -46 193 l-6 37 -214 0 c-164 0 -214
-3 -215 -12z"/>
</g>
</svg>
